<?xml version="1.0" encoding="UTF-8"?>
<svg width="172px" height="48px" viewBox="0 0 172 48" version="1.1" xmlns="http://www.w3.org/2000/svg" xmlns:xlink="http://www.w3.org/1999/xlink">
    <!-- Generator: Sketch 52.6 (67491) - http://www.bohemiancoding.com/sketch -->
    <title>Artboard</title>
    <desc>Created with Sketch.</desc>
    <g id="Artboard" stroke="none" stroke-width="1" fill="none" fill-rule="evenodd">
        <g id="logo_text_white" transform="translate(54.000000, 0.000000)" fill="#33691E">
            <path d="M28,29.8633791 C28,29.283751 28.0328236,28.6063056 28.1000721,27.8342765 C28.1673205,27.0622474 28.2577856,26.2465643 28.372268,25.3904608 C28.4859499,24.5319321 28.6204467,23.6580437 28.7741574,22.7687955 C28.9278681,21.8779305 29.0919862,21.0299111 29.2665119,20.2255457 C29.4394364,19.4203719 29.6147626,18.6814875 29.7884877,18.0088925 C29.9622128,17.3354891 30.1367385,16.7825384 30.3104635,16.3459984 C30.4177408,16.0557801 30.525018,15.8245756 30.6314947,15.6540016 C30.7387719,15.4818108 30.8620607,15.3468068 31.0037627,15.2457559 C31.1454647,15.1479386 31.3191898,15.083266 31.5257385,15.0501213 C31.7338884,15.0169766 31.9908734,15 32.2990953,15 C32.6489472,15 32.9187415,15.0169766 33.1148827,15.0501213 C33.3086222,15.083266 33.4519254,15.1624899 33.5455928,15.287793 C33.6392603,15.4130962 33.6961012,15.5949879 33.7177168,15.8318513 C33.7385317,16.069523 33.7473381,16.3920776 33.7473381,16.8011318 C33.7473381,17.2894099 33.7473381,17.8779305 33.7473381,18.5723525 C33.7473381,19.2651576 33.7617485,19.9482619 33.7881675,20.6200485 L34.0075254,20.6200485 C34.2765191,20.0929669 34.5783364,19.5028294 34.9129773,18.8488278 C35.2476183,18.196443 35.6350973,17.5860954 36.0786166,17.0185934 C36.5197342,16.4510914 37.0232968,15.9733226 37.586102,15.5844786 C38.1489072,15.1956346 38.7973741,15 39.534705,15 C39.7892883,15 40.0390681,15.0428456 40.2808422,15.1277284 C40.5202146,15.2134196 40.7307662,15.3354891 40.9140982,15.4939369 C41.0942278,15.6523848 41.2367304,15.8480194 41.3448083,16.0776071 C41.4520855,16.3088116 41.5049235,16.5699272 41.5049235,16.8617623 C41.5049235,17.0840744 41.4729005,17.3985449 41.4040509,17.8003234 C41.3376031,18.2021019 41.2647506,18.6257074 41.1838924,19.0662894 C41.1030342,19.5084883 41.0293812,19.9377526 40.9629333,20.3532741 C40.8964855,20.7696039 40.8628613,21.1147939 40.8628613,21.3920776 C40.8628613,21.8674212 40.9108958,22.2627324 41.0037627,22.5804365 C41.0990313,22.8981407 41.2215195,23.1503638 41.3760307,23.3411479 C41.530542,23.5319321 41.7034665,23.6661277 41.897206,23.7461601 C42.0925466,23.8270008 42.295893,23.8658044 42.5120487,23.8658044 C43.1140821,23.8658044 43.7369306,23.7332255 44.3797935,23.4696847 C45.025058,23.2053355 45.6142823,22.9102668 46.1506685,22.5796281 C46.779121,22.196443 47.3955648,21.7607114 48,21.2732417 L47.6965815,25.9046079 C47.349932,26.1301536 46.9544472,26.3791431 46.512529,26.6572352 C46.0706108,26.934519 45.5974702,27.1948262 45.0955088,27.4389652 C44.5911456,27.6839127 44.0691698,27.8884398 43.526379,28.0525465 C42.9851893,28.21827 42.431991,28.3007276 41.8691858,28.3007276 C40.8636618,28.3007276 40.0534785,28.1002425 39.4378352,27.6960388 C38.8205908,27.2942603 38.3330398,26.7655618 37.9703787,26.113177 C37.6085181,25.4607922 37.3411256,24.7283751 37.1657994,23.9175424 C36.9904731,23.105093 36.8495717,22.283751 36.7438956,21.4527082 L36.4228645,21.4527082 L32.8258746,31.3290218 C32.6393403,31.8439774 32.4600112,32.2675829 32.2926907,32.6054972 C32.1253703,32.9417947 31.9548475,33.2150364 31.7803218,33.4260307 C31.6057962,33.6386419 31.4192619,33.785772 31.2183172,33.8722716 C31.0165719,33.9579628 30.7964134,34 30.5546393,34 C30.0046433,34 29.5627252,33.8860146 29.2288848,33.65481 C28.8934433,33.4244139 28.6356577,33.1123686 28.4547274,32.7243331 C28.2729966,32.3346807 28.1537107,31.8924818 28.0920663,31.3985449 C28.0296213,30.9029911 28,30.3904608 28,29.8633791 Z" id="Path"></path>
            <path d="M57.3937566,19.1752468 C57.774659,19.9399677 58.0626967,20.7499575 58.2539349,21.5995575 C58.4435992,22.4491576 58.5403987,23.2656144 58.5403987,24.0432692 C58.5403987,24.8225408 58.453043,25.6074711 58.2830535,26.3996767 C58.110703,27.1894571 57.8643757,27.9557948 57.5409234,28.6946477 C57.2206191,29.4335007 56.8239769,30.1270848 56.3565058,30.7721664 C55.8890346,31.42129 55.3546695,31.9798758 54.7565582,32.4551991 C54.156873,32.9297141 53.5005247,33.3056076 52.7914481,33.5836879 C52.0784365,33.8609598 51.3221406,34 50.5186254,34 C49.3586044,34 48.3693599,33.7453625 47.545383,33.2385126 C46.7221931,32.7308543 46.04617,32.0663717 45.5196747,31.2474898 C44.9939664,30.4302246 44.6075551,29.5070626 44.3635887,28.4788121 C44.1188353,27.4489449 44,26.4077604 44,25.3504084 C44,23.9001872 44.2164218,22.5445456 44.6516264,21.2826753 C45.0852571,20.0232301 45.707765,18.9295014 46.5167891,17.9998724 C47.3281742,17.0686266 48.3189927,16.3354323 49.4900315,15.8002893 C50.6634313,15.2675715 51.979276,15 53.4422875,15 C54.6928122,15 55.866212,15.1940095 56.9593389,15.5844537 C58.0532529,15.9724728 59.0747639,16.4946818 60.0293809,17.1470388 C60.9847849,17.8010126 61.8748688,18.5503744 62.6972718,19.3943159 C63.5212487,20.2374489 64.2877754,21.1096835 65,22.0069775 L64.6253935,24.7958645 C64.2688877,24.3213496 63.7888248,23.8064159 63.1828437,23.251872 C62.5760756,22.6989449 61.93468,22.1573349 61.2562959,21.6294673 C60.5779119,21.1024081 59.9089717,20.6036419 59.2510493,20.1355939 C58.590766,19.6675459 58.0257083,19.2746767 57.5519412,18.9586028 L57.3937566,19.1752468 Z M51.2883001,30.19903 C51.7368835,30.19903 52.1720881,29.9726855 52.59234,29.5159547 C53.0125918,29.0608407 53.3840504,28.4885126 53.7004197,27.7949285 C54.0160021,27.1013445 54.2694124,26.3366236 54.4622246,25.4983407 C54.6518888,24.6608662 54.7471144,23.8581518 54.7471144,23.0926225 C54.7471144,22.4855344 54.7006821,21.9237151 54.6070304,21.4023145 C54.5157398,20.8801055 54.3772298,20.4290334 54.1922875,20.0450562 C54.0097062,19.6635041 53.7720357,19.3587474 53.4824239,19.1356365 C53.1928122,18.9125255 52.8433893,18.7977366 52.4365163,18.7977366 C51.8942812,18.7977366 51.3819517,19.0281229 50.8948059,19.4913206 C50.406086,19.9529016 49.9787513,20.543014 49.6096537,21.262466 C49.2413431,21.9811096 48.9517314,22.7765487 48.7400315,23.6463581 C48.5299056,24.5169758 48.4252361,25.3560671 48.4252361,26.1603982 C48.4252361,26.7149421 48.4779643,27.2355344 48.5826338,27.7237917 C48.6896642,28.212049 48.8517838,28.6372532 49.0760756,28.9994044 C49.3003673,29.3631722 49.5954879,29.6533781 49.9653725,29.8716389 C50.3328961,30.0890912 50.7759706,30.19903 51.2883001,30.19903 Z" id="Shape" fill-rule="nonzero"></path>
            <path d="M74.3937566,19.1752468 C74.774659,19.9399677 75.0626967,20.7499575 75.2539349,21.5995575 C75.4443861,22.4491576 75.5396118,23.2656144 75.5396118,24.0432692 C75.5396118,24.8225408 75.45383,25.6074711 75.2838405,26.3996767 C75.11149,27.1894571 74.8635887,27.9557948 74.5417104,28.6946477 C74.2182581,29.4335007 73.8247639,30.1270848 73.3565058,30.7721664 C72.8898216,31.42129 72.3554565,31.9798758 71.7573452,32.4551991 C71.156873,32.9297141 70.5028856,33.3056076 69.7914481,33.5836879 C69.0807975,33.8609598 68.3229276,34 67.5178384,34 C66.3593914,34 65.3693599,33.7453625 64.544596,33.2385126 C63.7214061,32.7308543 63.04617,32.0663717 62.5196747,31.2474898 C61.9923924,30.4302246 61.6099161,29.5070626 61.3643757,28.4788121 C61.1211962,27.4489449 61,26.4077604 61,25.3504084 C61,23.9001872 61.2156348,22.5445456 61.6500525,21.2826753 C62.0860441,20.0232301 62.7085519,18.9295014 63.5167891,17.9998724 C64.3281742,17.0686266 65.3182057,16.3354323 66.4900315,15.8002893 C67.6642183,15.2675715 68.9816369,15 70.4430745,15 C71.6928122,15 72.863851,15.1940095 73.9585519,15.5844537 C75.0540399,15.9724728 76.0747639,16.4946818 77.0317419,17.1470388 C77.9871459,17.8010126 78.8748688,18.5503744 79.6996327,19.3943159 C80.5220357,20.2374489 81.2901364,21.1096835 82,22.0069775 L81.6238195,24.7958645 C81.2688877,24.3213496 80.7888248,23.8064159 80.1820567,23.251872 C79.5752886,22.6989449 78.93468,22.1573349 78.2570829,21.6294673 C77.5786988,21.1024081 76.9089717,20.6036419 76.2510493,20.1355939 C75.591553,19.6675459 75.0249213,19.2746767 74.5503673,18.9586028 L74.3937566,19.1752468 Z M68.2898741,30.19903 C68.7360965,30.19903 69.1705142,29.9726855 69.590766,29.5159547 C70.0149528,29.0608407 70.3809024,28.4885126 70.6988458,27.7949285 C71.0144281,27.1013445 71.2686254,26.3366236 71.4590766,25.4983407 C71.6503148,24.6608662 71.7455404,23.8581518 71.7455404,23.0926225 C71.7455404,22.4855344 71.6991081,21.9237151 71.6070304,21.4023145 C71.5149528,20.8801055 71.3764428,20.4290334 71.1930745,20.0450562 C71.0073452,19.6635041 70.7712487,19.3587474 70.4816369,19.1356365 C70.1904512,18.9125255 69.8418153,18.7977366 69.4333683,18.7977366 C68.8950682,18.7977366 68.3811647,19.0281229 67.8916579,19.4913206 C67.406086,19.9529016 66.9779643,20.543014 66.6096537,21.262466 C66.2397692,21.9811096 65.9501574,22.7765487 65.7392445,23.6463581 C65.5299056,24.5169758 65.4252361,25.3560671 65.4252361,26.1603982 C65.4252361,26.7149421 65.4756034,27.2355344 65.5826338,27.7237917 C65.6865163,28.212049 65.8517838,28.6372532 66.0776495,28.9994044 C66.2995803,29.3631722 66.5970619,29.6533781 66.9669465,29.8716389 C67.3336831,30.0890912 67.7759706,30.19903 68.2898741,30.19903 Z" id="Shape" fill-rule="nonzero"></path>
            <path d="M94.9984159,29.7493219 C93.7248246,30.4576391 92.5930075,31.0776104 91.5974202,31.6084608 C90.601833,32.1393112 89.7187146,32.5833656 88.943313,32.9359743 C88.1671193,33.2909078 87.4772573,33.5567205 86.8745191,33.7326374 C86.2701969,33.9101042 85.7236931,34 85.2350079,34 C84.2275402,34 83.3388776,33.7086135 82.5698122,33.1258405 C81.8023308,32.5446174 81.1568228,31.7068812 80.6396243,30.611857 C80.12401,29.5183826 79.7367051,28.1947439 79.4769179,26.637841 C79.2195067,25.0817131 79.089613,23.3302943 79.089613,21.3835844 C79.089613,20.6233447 79.1236705,19.8150571 79.1894094,18.954072 C79.2551482,18.0930869 79.3494003,17.2390764 79.4682055,16.3920407 C79.0713962,16.342443 78.7625028,16.2943952 78.5446934,16.2494473 C78.3245078,16.2060493 78.0932338,16.1618763 77.8484951,16.1169284 C77.6021724,16.0712055 77.291695,16.0262576 76.9115184,15.974335 C76.5345101,15.9247373 75.9880063,15.8611903 75.2735913,15.7844688 C74.9536094,15.7472705 74.7096628,15.672874 74.5362073,15.5674789 C74.3643358,15.4605338 74.2391944,15.3318898 74.1591989,15.1877464 C74.0799955,15.0420532 74.0340575,14.8909352 74.0182168,14.7312926 C74.0063363,14.5739749 74,14.4375812 74,14.3244364 C74,14.0717981 74.1298936,13.8772822 74.3865128,13.7463132 C74.6463001,13.6114695 74.9781625,13.5153739 75.380516,13.4518269 C75.7868296,13.3890548 76.2279928,13.3526315 76.7143019,13.3464317 C77.1966508,13.341007 77.661575,13.3441069 78.1043222,13.3572812 C78.5494456,13.3696807 78.9470468,13.3782053 79.297126,13.38518 C79.6503734,13.3906047 79.8911518,13.3820801 80.0250057,13.3572812 C80.3822132,11.6492604 80.8368409,9.99626194 81.3873048,8.39596107 C81.9353926,6.7956602 82.5547635,5.37282611 83.2351211,4.12668384 C83.9178547,2.88131653 84.6655352,1.88161284 85.4742023,1.12834773 C86.2812854,0.377407517 87.1287622,0 88.0182168,0 C88.5868975,0 89.1096402,0.151892964 89.5801086,0.455678891 C90.0505771,0.758689855 90.4505544,1.16399608 90.7824168,1.66927267 C91.1134872,2.17454927 91.3685223,2.76662184 91.5483141,3.4431655 C91.7265218,4.12048412 91.8168138,4.82492649 91.8168138,5.55804253 C91.8168138,6.17878878 91.7233537,6.83363344 91.5388097,7.52180156 C91.3526816,8.21151961 91.0992306,8.91441205 90.7824168,9.62892895 C90.464811,10.3426709 90.0901788,11.0680373 89.6593121,11.8019283 C89.2268613,12.5342694 88.7738176,13.2619607 88.2978049,13.9826773 C88.4158181,13.9950767 88.6146187,14.0043763 88.8934148,14.0113509 C89.1730029,14.0175507 89.4921928,14.0268502 89.8589047,14.0400246 C90.2216565,14.053199 90.6168816,14.0679233 91.039828,14.0872974 C91.4651505,14.1051216 91.8770084,14.1237207 92.2746096,14.1345702 C92.6722109,14.1477446 93.042883,14.1593691 93.387418,14.1725435 C93.7319529,14.1864928 94.0170853,14.1988923 94.241231,14.2120666 C94.5081466,14.2244661 94.699819,14.3507852 94.8186241,14.5886992 C94.9390134,14.830488 95,15.1342739 95,15.5008319 C95,15.9433364 94.8637701,16.3044697 94.5992306,16.5826818 C94.3362752,16.8608939 94.0448065,16.9988376 93.7248246,16.9988376 L86.089613,16.9988376 C85.7070604,17.506439 85.3181715,18.0024161 84.9276986,18.4906434 C84.5364336,18.9765459 84.1752659,19.4144007 83.8441955,19.8080824 C83.7919212,20.593896 83.7443992,21.3649853 83.7047975,22.1213503 C83.6913329,22.451485 83.6770763,22.7893693 83.6636117,23.1381032 C83.6525232,23.486837 83.6390586,23.8301461 83.625594,24.1719053 C83.6105454,24.5113395 83.601833,24.8422492 83.5954967,25.1584346 C83.5883684,25.473845 83.5836162,25.7660064 83.5836162,26.0318191 C83.5836162,26.7153375 83.6525232,27.2903608 83.7840009,27.7576642 C83.9170627,28.2257425 84.108735,28.6093497 84.361394,28.9069359 C84.6132609,29.2014223 84.9221543,29.4184122 85.2864902,29.5501561 C85.651618,29.68345 86.0579317,29.7493219 86.5093913,29.7493219 C86.7881874,29.7493219 87.1343064,29.6857749 87.5525006,29.5617806 C87.9683186,29.4339115 88.4269065,29.2603196 88.9243041,29.0379049 C89.4201177,28.8170401 89.9452365,28.5535523 90.4933243,28.2513163 C91.0445802,27.9459804 91.5887079,27.6158457 92.1249151,27.2547125 C92.6627065,26.8935792 93.1743607,26.5146217 93.665422,26.1162902 C94.1556913,25.7171837 94.5643811,25.6443371 94.9611903,25.2274064 L94.9984159,29.7493219 Z M88.6352116,5.7293096 C88.6352116,5.58981606 88.6241231,5.43482324 88.6051143,5.26278121 C88.5845214,5.09151414 88.5433356,4.9326465 88.4752206,4.78075354 C88.4078977,4.62886057 88.3065173,4.50331639 88.1671193,4.40102113 C88.0277212,4.29950083 87.8320887,4.24990313 87.5802218,4.24990313 C87.2356868,4.24990313 86.8879837,4.54051467 86.5371125,5.12173774 C86.1854492,5.70451075 85.8480425,6.44692636 85.5233084,7.35208443 C85.1993664,8.25569257 84.8928491,9.2522964 84.6093007,10.339571 C84.3233763,11.4283956 84.062005,12.4846717 83.8243947,13.5076243 C84.0224033,13.534748 84.2219959,13.5556721 84.4207966,13.5750462 C84.6188052,13.5944203 84.8247341,13.6176692 85.0362073,13.6416931 C85.4346006,12.996148 85.8480425,12.2979053 86.2789093,11.5446402 C86.710568,10.792925 87.0970808,10.0520594 87.4431998,9.32514303 C87.7861507,8.5982267 88.0720751,7.91780822 88.2978049,7.28543751 C88.5227427,6.65229184 88.6352116,6.13539079 88.6352116,5.7293096 Z" id="Shape" fill-rule="nonzero"></path>
            <path d="M26,28.6579397 C26,29.9766852 25.9178351,31.3432729 25.7551008,32.7615609 C25.5931642,34.1821639 25.3315129,35.5726727 24.970147,36.9354021 C24.6095787,38.2973599 24.1301506,39.5852395 23.5342558,40.8013559 C22.9391587,42.015929 22.2084497,43.0815742 21.3397355,44.0021496 C20.47501,44.9211817 19.4611113,45.6511602 18.2988372,46.1905418 C17.1373608,46.7291517 15.8107569,47 14.3174301,47 C14.0398245,47 13.7095695,46.9830238 13.3242721,46.9490713 C12.9397723,46.9151188 12.5369251,46.8580169 12.1149327,46.7777655 C11.6945356,46.6990575 11.2757341,46.5948851 10.8609211,46.463705 C10.4453103,46.3325249 10.0759672,46.1727939 9.74970086,45.9775671 C9.42502991,45.7846552 9.16098549,45.5616491 8.95517442,45.3054622 C8.75016108,45.0492752 8.64805326,44.7575925 8.64805326,44.4288706 C8.64805326,44.2567933 8.68714141,44.0330155 8.76531771,43.7552224 C8.843494,43.4774293 8.96394931,43.2081243 9.12668364,42.9465359 C9.28862026,42.6849474 9.4936336,42.4588547 9.74012825,42.2651711 C9.98742061,42.0722593 10.2849692,41.9750317 10.6343693,41.9750317 C11.0308348,41.9750317 11.4161323,42.0367635 11.7886663,42.1609987 C12.1627957,42.2867773 12.5464977,42.4264455 12.9445586,42.5815466 C13.3418219,42.7335612 13.7574326,42.8709144 14.1905931,42.9966929 C14.6237536,43.1216998 15.0928113,43.1849749 15.5985641,43.1849749 C16.1641457,43.1849749 16.7201546,42.9110401 17.2689841,42.366257 C17.8170159,41.8207022 18.3347345,41.1123298 18.821342,40.2372816 C19.3087473,39.3622334 19.755469,38.384556 20.1575185,37.2996197 C20.5611634,36.2139117 20.9001933,35.1274321 21.1777989,34.0370942 C20.5994539,34.5371218 19.9892001,35.0124566 19.3446446,35.4600121 C18.700089,35.9075677 17.9661891,36.2987929 17.1421471,36.6336879 C16.3181051,36.9716695 15.376001,37.2371162 14.3166324,37.4362013 C13.2572638,37.6345147 12.0295769,37.7332856 10.6343693,37.7332856 C9.00862148,37.7332856 7.54401252,37.4253982 6.23735158,36.8049937 C4.93228607,36.186904 3.81548185,35.3519815 2.88773663,34.3009976 C1.96158684,33.2531004 1.24842758,32.0323541 0.748258829,30.640302 C0.249685515,29.2490217 0,27.7875214 0,26.2550295 C0,24.2448878 0.255269536,22.3219423 0.766606327,20.4892796 C1.27874083,18.6543019 1.98551836,16.9520476 2.88773663,15.3786584 C3.79155033,13.8068125 4.85650293,12.3815797 6.08418986,11.1060464 C7.31187678,9.8281982 8.63528979,8.73863198 10.0560243,7.8350328 C11.4759611,6.93297691 12.9645016,6.2338643 14.5248366,5.74000992 C16.0835762,5.24538389 17.644709,5 19.2090326,5 C20.1718774,5 21.0653208,5.1365816 21.8901605,5.40665822 C22.7142024,5.67982142 23.4305526,6.10577082 24.0376154,6.68527807 C24.6462737,7.26324202 25.1217133,7.99707876 25.4647317,8.88215841 C25.8077501,9.76723805 25.9784616,10.8243951 25.9784616,12.0497713 C25.9784616,12.5258777 25.9186328,13.0004409 25.7989752,13.4726892 C25.6777222,13.9433941 25.4790906,14.4179573 25.2022827,14.8948355 C24.8169852,15.4280439 24.4444513,15.8069228 24.0830853,16.0283856 C23.7225171,16.2490768 23.3787009,16.360194 23.0548277,16.360194 C22.8019513,16.360194 22.5666247,16.2976906 22.3504433,16.1726837 C22.134262,16.0469051 21.9475961,15.8833159 21.7904458,15.6780577 C21.6340932,15.4735711 21.510447,15.2428485 21.420305,14.9874332 C21.3309606,14.7320179 21.284693,14.4681144 21.284693,14.1972662 C21.284693,13.9812049 21.321388,13.7705451 21.3939803,13.5676018 C21.4657749,13.361572 21.541558,13.1570854 21.6189366,12.9541421 C21.6979106,12.7496555 21.7720983,12.5351375 21.8446906,12.3136747 C21.9172829,12.0929835 21.9539778,11.8645759 21.9539778,11.6238219 C21.9539778,10.4879568 21.688338,9.63760128 21.1594514,9.06966874 C20.6289694,8.50173621 19.9676618,8.21854159 19.1731353,8.21854159 C18.1983248,8.21854159 17.1724603,8.40836686 16.095542,8.78878906 C15.0186236,9.16921127 13.9616482,9.71939591 12.9270089,10.4401146 C11.8915718,11.161605 10.9071887,12.0474563 9.97545485,13.0976685 C9.04132789,14.1471091 8.22047679,15.3477925 7.51050839,16.6981756 C6.79974228,18.050102 6.23735158,19.5416965 5.82174086,21.1698727 C5.40692787,22.7988205 5.19952137,24.5504602 5.19952137,26.4240203 C5.19952137,27.5930662 5.35268309,28.6131841 5.65980425,29.4812875 C5.96772313,30.3501626 6.40327678,31.0739679 6.96885834,31.6534752 C7.53443991,32.2322108 8.22685853,32.6635617 9.04531648,32.9467563 C9.86457215,33.2307226 10.7843402,33.3727057 11.8086092,33.3727057 C13.7103673,33.3727057 15.4613567,33.1319517 17.0615776,32.649672 C18.663394,32.1673924 20.1678888,31.4883426 21.5750621,30.6132944 C21.6707882,30.2729979 21.756144,29.946591 21.8271408,29.6340737 C21.8997331,29.3215565 21.9364281,29.0345037 21.9364281,28.7744585 C21.9364281,28.4326186 21.8877673,28.1633137 21.7912435,27.9657719 C21.6947197,27.7666869 21.567085,27.6193022 21.4027552,27.5220746 C21.2408186,27.427162 21.0485687,27.3669735 20.8252079,27.3438241 C20.6026447,27.3214463 20.3657227,27.3098716 20.1120486,27.3098716 C19.6549566,27.3098716 19.2545025,27.2527697 18.9114841,27.1385658 C18.5676679,27.0251337 18.2765011,26.877749 18.0347927,26.6971835 C17.7946798,26.514303 17.6143957,26.3036433 17.4931427,26.0652042 C17.3718897,25.8267651 17.3128586,25.5883261 17.3128586,25.3506587 C17.3128586,25.1122196 17.3694965,24.8830403 17.4843678,24.6608058 C17.5984414,24.439343 17.7755346,24.2433445 18.017243,24.0728105 C18.2573559,23.9015047 18.5620839,23.7633798 18.9290338,23.6553492 C19.2959838,23.5480902 19.7259534,23.4925316 20.2189427,23.4925316 C21.3868008,23.4925316 22.3464548,23.6067354 23.0987022,23.8335997 C23.8501519,24.0596924 24.4412604,24.3961307 24.8680391,24.8390564 C25.2956156,25.281982 25.5899733,25.8236786 25.7527076,26.4649176 C25.9178351,27.1115582 26,27.840765 26,28.6579397 Z" id="Path"></path>
            <path d="M106.234686,31.9444093 C105.719173,32.901336 105.151949,33.2849075 103.875099,33.6364479 C102.677009,33.9647659 101.500398,34 100.40891,34 C99.6229117,34 98.8894193,33.9255279 98.211615,33.7829898 C97.5330151,33.6380495 96.9355609,33.4130316 96.4240255,33.1071353 C95.9116945,32.798036 95.494829,32.3960467 95.1750199,31.9011674 C94.8568019,31.4046866 94.6626889,30.8025035 94.5966587,30.0970203 C94.4105012,30.1354575 94.2267303,30.1626839 94.0477327,30.1754963 C93.8679395,30.1899102 93.690533,30.1947149 93.5186953,30.1947149 C93.3054893,30.1947149 93.1042164,30.1891095 92.91965,30.1754963 C92.7311058,30.1626839 92.5712013,30.1138366 92.4391408,30.0289544 C92.3054893,29.9432714 92.1996818,29.8063388 92.1185362,29.616555 C92.0413683,29.427572 92,29.1561091 92,28.8021663 C92,28.4882623 92.0811456,28.1975808 92.2402546,27.9301218 C92.4009547,27.6634636 92.6308671,27.5065116 92.8448687,27.2975092 C93.0572792,27.0861044 93.2704853,26.90593 93.4852824,26.7473764 C93.6976929,26.5912252 93.8560064,26.4679058 93.9642005,26.3766174 C94.708035,25.7472078 95.2696897,25.1426223 95.7366746,24.7254183 C96.2036595,24.3074135 96.601432,23.9254436 96.9347653,23.577907 C97.2680986,23.231972 97.5712013,22.8812324 97.8432776,22.5288911 C98.1169451,22.1749484 98.4383453,21.7577443 98.8122514,21.2740759 C99.1845664,20.7904076 99.638027,20.1986345 100.171042,19.4995575 C100.704057,18.7996797 101.39459,17.9276352 102.249006,16.8810216 C102.420843,16.6455936 102.614956,16.4181734 102.827367,16.1955578 C103.040573,15.9745438 103.27685,15.7751507 103.536197,15.5981793 C103.797136,15.4204071 104.082737,15.2778691 104.396181,15.1665613 C104.707239,15.0552535 105.056484,15 105.443914,15 C106.082737,15 106.573588,15.0680659 106.921241,15.2074009 C107.268894,15.3427319 107.521877,15.5092932 107.680191,15.7046824 C107.840891,15.9008724 107.933174,16.1082733 107.960223,16.3228811 C107.986476,16.5390905 108,16.7256712 108,16.8810216 C108,17.1949256 107.873508,17.5424622 107.620525,17.9204282 C107.369133,18.2999958 107.08751,18.6659502 106.781225,19.0190922 C106.47494,19.3706326 106.186158,19.6949467 105.911695,19.9888313 C105.639618,20.2835167 105.482896,20.5029292 105.443119,20.6446664 C105.443119,21.0514604 105.47494,21.4174148 105.531424,21.7537405 C105.591885,22.0860623 105.673827,22.4135795 105.771679,22.7330889 C105.871917,23.0550006 105.976134,23.3945294 106.081941,23.7524761 C106.18934,24.1136258 106.291965,24.5276268 106.392204,24.9984827 C106.491647,25.4701395 106.571201,26.0114637 106.631663,26.6248578 C106.69292,27.2390526 106.762132,28.19678 106.743835,28.7164833 C106.741448,28.7180849 106.89101,30.7320352 106.234686,31.9444093 Z M96.4741448,28.8029671 C96.6340493,28.8029671 96.8122514,28.9014625 97.0023866,29.0968517 C97.1972951,29.2938425 97.4200477,29.5084503 97.6722355,29.7454798 C97.9260143,29.9793063 98.2195704,30.1955157 98.5513126,30.3925064 C98.8838504,30.5886964 99.2641209,30.6847895 99.6913286,30.6847895 C100.207637,30.6847895 100.637232,30.6007081 100.979316,30.4301429 C101.317422,30.26198 101.587908,30.0361613 101.788385,29.7558899 C101.987271,29.4732162 102.127287,29.1473005 102.207637,28.7757407 C102.287192,28.4017786 102.326173,28.0134025 102.326173,27.6090108 C102.326173,27.2566696 102.303898,26.8963206 102.25537,26.5279639 C102.208433,26.1636111 102.150358,25.8136722 102.076372,25.4805496 C102.002387,25.147427 101.922037,24.833523 101.836118,24.5388376 C101.749403,24.2441522 101.672235,23.9927087 101.606205,23.7853079 L96.4741448,28.8029671 Z" id="Shape" fill-rule="nonzero"></path>
        </g>
        <g id="logo_icon" transform="translate(1.000000, 0.000000)">
            <g id="Clipped" fill="#33691E">
                <path d="M46.6804,24.1403636 C46.6804,37.0887273 36.2449538,47.584 23.3720154,47.584 C10.4976308,47.584 0.0636307692,37.0887273 0.0636307692,24.1403636 C0.0636307692,11.1934545 10.4976308,0.696727273 23.3720154,0.696727273 C36.2449538,0.696727273 46.6804,11.1934545 46.6804,24.1403636" id="Path"></path>
            </g>
            <g id="Clipped" transform="translate(3.000000, 7.000000)" fill="#8CC348">
                <path d="M40.4439825,20.5172632 C40.4439825,31.6045263 31.4577895,40.5878421 20.3726842,40.5878421 C9.28757895,40.5878421 0.301385965,31.6045263 0.301385965,20.5172632 C0.301385965,9.4314386 9.28757895,0.446684211 20.3726842,0.446684211 C31.4577895,0.446684211 40.4439825,9.43215789 40.4439825,20.5172632" id="Path"></path>
            </g>
            <g id="Group-3" transform="translate(17.000000, 29.000000)">
                <g id="Group">
                    <g id="Clipped" transform="translate(6.000000, 11.711972)" fill="#FFFFFF">
                        <path d="M1.7415,0.338085599 L1.7415,0.576229034 C1.9845,0.576229034 2.202,0.675390399 2.36175,0.843262001 C2.52,1.00801041 2.61825,1.23522267 2.61825,1.48663968 C2.61825,1.73883748 2.52,1.96526894 2.36175,2.13157895 C2.202,2.29710816 1.9845,2.39783112 1.7415,2.39783112 C1.5,2.39783112 1.28325,2.29710816 1.1235,2.13157895 C0.96225,1.96526894 0.867,1.73883748 0.867,1.48663968 C0.867,1.23522267 0.96225,1.00801041 1.1235,0.843262001 C1.28325,0.675390399 1.5,0.576229034 1.7415,0.576229034 L1.7415,0.338085599 L1.7415,0.103065356 C1.00875,0.103065356 0.41325,0.723019086 0.41325,1.48585888 C0.41325,2.25026027 1.00875,2.8686524 1.7415,2.8686524 C2.4765,2.8686524 3.07125,2.24947947 3.07125,1.48585888 C3.07125,0.722238288 2.4765,0.103065356 1.7415,0.103065356 L1.7415,0.338085599 Z" id="Path"></path>
                    </g>
                    <g id="Clipped" transform="translate(6.750000, 0.000000)" fill="#FFFFFF">
                        <polyline id="Path" points="0.71025 0.626980914 0.71025 12.2171486 1.27425 12.2171486 1.27425 0.626980914"></polyline>
                    </g>
                    <g id="Clipped" fill="#FFFFFF">
                        <rect id="Rectangle" x="0.6585" y="0.0538750723" width="14.16825" height="1.81145171"></rect>
                    </g>
                    <g id="Clipped" transform="translate(3.750000, 0.780798)" fill="#FFFFFF">
                        <path d="M1.49025,0.644939271 L1.49025,4.94167149 C1.49025,5.26804511 1.34925,5.56396761 1.10925,5.78961828 C0.86775,6.01370735 0.525,6.1573742 0.1455,6.15659341 L0.0495,6.15659341 L0.0495,6.74609601 L0.1455,6.74609601 C0.6615,6.74609601 1.1355,6.55089647 1.48575,6.22920763 C1.833,5.90908039 2.05875,5.44997108 2.05875,4.94245228 L2.05875,0.645720069 L1.49025,0.645720069 L1.49025,0.644939271 Z" id="Path"></path>
                    </g>
                    <g id="Clipped" transform="translate(1.500000, 5.465587)" fill="#8CC348">
                        <path d="M2.61375,1.8973395 C2.61375,2.5313476 2.12025,3.04433198 1.51125,3.04433198 C0.90225,3.04433198 0.40875,2.5313476 0.40875,1.8973395 C0.40875,1.264893 0.90225,0.75112782 1.51125,0.75112782 C2.12025,0.75112782 2.61375,1.264893 2.61375,1.8973395" id="Path"></path>
                    </g>
                    <g id="Clipped" transform="translate(1.500000, 5.465587)" fill="#FFFFFF">
                        <path d="M1.512,0.748004627 L1.512,1.04392713 C1.74,1.04392713 1.941,1.1391845 2.09175,1.29456333 C2.238,1.44916136 2.3325,1.65997687 2.3325,1.8965587 C2.3325,2.13235975 2.238,2.34395604 2.09175,2.49933488 C1.941,2.65393291 1.73925,2.74919028 1.512,2.74919028 C1.2855,2.74919028 1.0815,2.65393291 0.93225,2.49933488 C0.78375,2.34395604 0.6945,2.13157895 0.6945,1.8965587 C0.6945,1.65919607 0.78375,1.44916136 0.93225,1.29456333 C1.08225,1.1391845 1.2855,1.04392713 1.512,1.04392713 L1.512,0.748004627 L1.512,0.454424523 C0.747,0.454424523 0.1275,1.10014459 0.1275,1.8973395 C0.1275,2.69453441 0.747,3.33947368 1.512,3.33947368 C2.277,3.33947368 2.898,2.69453441 2.898,1.8973395 C2.898,1.10014459 2.277,0.454424523 1.512,0.454424523 L1.512,0.748004627 Z" id="Path"></path>
                    </g>
                    <g id="Clipped" transform="translate(9.000000, 0.780798)" fill="#FFFFFF">
                        <path d="M0.678,0.644939271 L0.678,4.94167149 C0.678,5.44919028 0.9015,5.9082996 1.2495,6.22842684 C1.59825,6.55011567 2.07225,6.74531521 2.58975,6.74531521 L2.6865,6.74531521 L2.6865,6.15581261 L2.58975,6.15581261 C2.20875,6.15659341 1.8675,6.01292655 1.626,5.78883748 C1.3845,5.56318681 1.2435,5.26726431 1.2435,4.94089069 L1.2435,0.644158473 L0.678,0.644158473 L0.678,0.644939271 Z" id="Path"></path>
                    </g>
                    <g id="Clipped" transform="translate(11.250000, 5.465587)" fill="#8CC348">
                        <path d="M0.12075,1.8973395 C0.12075,2.5313476 0.61425,3.04433198 1.22325,3.04433198 C1.83,3.04433198 2.32575,2.5313476 2.32575,1.8973395 C2.32575,1.264893 1.83,0.75112782 1.22325,0.75112782 C0.6135,0.75112782 0.12075,1.264893 0.12075,1.8973395" id="Path"></path>
                    </g>
                    <g id="Clipped" transform="translate(10.500000, 5.465587)" fill="#FFFFFF">
                        <path d="M0.87075,1.8973395 L0.588,1.8973395 C0.58875,2.69453441 1.20825,3.33869289 1.97325,3.33947368 C2.739,3.33869289 3.35775,2.69453441 3.35925,1.8973395 C3.3585,1.10092539 2.739,0.456766917 1.97325,0.456766917 C1.20825,0.456766917 0.58875,1.10170619 0.588,1.8973395 L0.87075,1.8973395 L1.15275,1.8973395 C1.1535,1.66153846 1.24575,1.45072296 1.39275,1.29534413 C1.54275,1.1407461 1.74375,1.04548872 1.9725,1.04548872 C2.2005,1.04548872 2.4015,1.1407461 2.553,1.29612493 C2.7015,1.45072296 2.79225,1.66231926 2.79225,1.8981203 C2.79225,2.13392134 2.7015,2.34551764 2.553,2.50089647 C2.4015,2.65549451 2.2005,2.74997108 1.9725,2.74997108 C1.74375,2.74997108 1.542,2.65549451 1.39275,2.50089647 C1.24575,2.34551764 1.1535,2.13314054 1.15275,1.8981203 L0.87075,1.8981203 L0.87075,1.8973395 Z" id="Path"></path>
                    </g>
                </g>
            </g>
            <g id="Group-2" transform="translate(10.000000, 9.000000)" fill="#FFFFFF">
                <path d="M6.31220513,9.59346667 C9.14092308,10.4353333 10.4626667,14.5288 10.4626667,14.5288 C10.4626667,14.5288 7.19312821,17.2582667 4.36441026,16.4134667 C1.53497436,15.5716 0.216820513,11.4774 0.216820513,11.4774 C0.216820513,11.4774 3.48276923,8.75086667 6.31220513,9.59346667" id="Path"></path>
                <path d="M14.1730256,21.3304667 C14.1730256,21.3231333 14.181641,21.2131333 14.181641,21.0195333 C14.1794872,20.3808 14.1019487,18.8437333 13.4019487,17.3059333 C13.0530256,16.5381333 12.5418462,15.7681333 11.8066667,15.1235333 C11.073641,14.476 10.1115897,13.9560667 8.87528205,13.6810667 L8.75969231,14.2208 C9.91487179,14.4804 10.7850256,14.9548667 11.4534359,15.5415333 C12.4535385,16.4208 13.0013333,17.5596667 13.2992821,18.601 C13.5972308,19.6408667 13.6403077,20.5758667 13.6388718,21.0202667 C13.6388718,21.1097333 13.6388718,21.1794 13.6367179,21.2248667 C13.6345641,21.2476 13.6345641,21.2652 13.6345641,21.2769333 L13.6331282,21.2879333 L13.6331282,21.2923333 L14.1730256,21.3304667 Z" id="Path"></path>
                <path d="M17.766359,6.67333333 C17.766359,10.043 13.8693333,12.7739333 13.8693333,12.7739333 C13.8693333,12.7739333 9.97589744,10.0386 9.97661538,6.666 C9.98164103,3.29706667 13.8779487,0.566866667 13.8779487,0.566866667 C13.8779487,0.566866667 17.7713846,3.30073333 17.766359,6.67333333" id="Path"></path>
                <polyline id="Path" points="13.6029744 4.70433333 13.6029744 20.4123333 14.1428718 20.4123333 14.1428718 4.70433333"></polyline>
                <path d="M21.4501538,9.5194 C18.6214359,10.3612667 17.3011282,14.4562 17.3011282,14.4562 C17.3011282,14.4562 20.5692308,17.1842 23.3993846,16.3394 C26.2281026,15.4982667 27.5484103,11.4026 27.5484103,11.4026 C27.5484103,11.4026 24.2817436,8.6768 21.4501538,9.5194" id="Path"></path>
                <path d="M14.1299487,21.2175333 L14.1299487,21.2153333 C14.1299487,21.1984667 14.1249231,21.1024 14.1249231,20.9469333 C14.1227692,20.3536667 14.2017436,18.887 14.8529231,17.4665333 C15.1774359,16.7552 15.6433846,16.0548667 16.3089231,15.4682 C16.9773333,14.8815333 17.8489231,14.4048667 19.0026667,14.1482 L18.8885128,13.6077333 C17.6522051,13.8827333 16.6923077,14.4019333 15.9571282,15.0494667 C14.853641,16.0189333 14.2620513,17.2626667 13.944,18.3729333 C13.6273846,19.4839333 13.5814359,20.4673333 13.5814359,20.9476667 C13.5814359,21.1405333 13.5886154,21.2505333 13.5907692,21.2571333 L14.1299487,21.2175333 Z" id="Path"></path>
            </g>
        </g>
    </g>
</svg>